<svg xmlns="http://www.w3.org/2000/svg" width="640" height="480" viewBox="0 0 640 480" fill="none">
  <defs>
    <linearGradient id="empty-bg" x1="96" y1="54" x2="560" y2="426" gradientUnits="userSpaceOnUse">
      <stop stop-color="#FFFFFF"/>
      <stop offset="1" stop-color="#F3F6FD"/>
    </linearGradient>
    <linearGradient id="empty-case" x1="196" y1="139" x2="470" y2="372" gradientUnits="userSpaceOnUse">
      <stop stop-color="#FFFFFF"/>
      <stop offset="1" stop-color="#E9EDFA"/>
    </linearGradient>
    <linearGradient id="empty-accent" x1="249" y1="179" x2="435" y2="326" gradientUnits="userSpaceOnUse">
      <stop stop-color="#6680EA"/>
      <stop offset="1" stop-color="#765FD0"/>
    </linearGradient>
    <filter id="empty-shadow" x="-20%" y="-30%" width="140%" height="180%" color-interpolation-filters="sRGB">
      <feDropShadow dx="0" dy="14" stdDeviation="16" flood-color="#334062" flood-opacity="0.13"/>
    </filter>
  </defs>
  <rect width="640" height="480" fill="url(#empty-bg)"/>
  <path d="M86 367C179 349 257 360 330 370C411 381 482 381 557 360" stroke="#DDE3F1" stroke-width="2" stroke-linecap="round"/>
  <path d="M120 123L225 73H510L423 124H120Z" fill="#F7F9FE" stroke="#E1E6F0" stroke-width="2"/>
  <path d="M120 123H423V363H120V123Z" fill="#EDF1FA" stroke="#C8D0E1" stroke-width="2.5"/>
  <path d="M423 123L510 73V306L423 363V123Z" fill="#E1E7F5" stroke="#C8D0E1" stroke-width="2.5"/>
  <g filter="url(#empty-shadow)">
    <path d="M174 151H404V337H174V151Z" fill="url(#empty-case)" stroke="#AEB9D1" stroke-width="3"/>
    <path d="M174 244H404" stroke="#BEC7DA" stroke-width="3"/>
    <path d="M207 183H371V216H207V183Z" fill="#F8FAFE" stroke="#C8D0E1" stroke-width="2"/>
    <path d="M207 276H371V309H207V276Z" fill="#F8FAFE" stroke="#C8D0E1" stroke-width="2"/>
    <path d="M226 183V166H267V183M295 276V259H336V276" stroke="#9BA8C3" stroke-width="2.5" stroke-linecap="round" stroke-linejoin="round"/>
    <path d="M201 218L218 233H360L377 218" stroke="#D4DAE8" stroke-width="2" stroke-linecap="round" stroke-linejoin="round"/>
    <path d="M201 311L218 326H360L377 311" stroke="#D4DAE8" stroke-width="2" stroke-linecap="round" stroke-linejoin="round"/>
    <path d="M174 151H404V166H174V151Z" fill="url(#empty-accent)"/>
    <path d="M404 151L434 137V322L404 337V151Z" fill="#D9DFF0" stroke="#AEB9D1" stroke-width="2.5"/>
  </g>
  <path d="M151 363H443L475 385H119L151 363Z" fill="#E8ECF6" stroke="#C8D0E1" stroke-width="2"/>
  <path d="M142 385H468" stroke="#AEB9D1" stroke-width="3" stroke-linecap="round"/>
  <path d="M485 150L519 132M485 178L540 149M485 206L522 187" stroke="#B6C1E9" stroke-width="3" stroke-linecap="round" opacity="0.75"/>
</svg>
